# Blender v2.83.20 OBJ File: 'jak 2 race zoomers.blend'
# www.blender.org
mtllib racebikea-cushion01.mtl
o racebikea-cushion01_race-bike-b-lod0.170
v -0.278090 -0.328652 -1.188203
v -0.252809 -0.429775 -1.289326
v 0.252809 -0.429775 -1.289326
v 0.278090 -0.328652 -1.188203
v -0.252809 -0.227528 -1.087079
v -0.113764 -0.101124 -1.327248
v 0.113764 -0.101124 -1.327248
v -0.113764 -0.214888 -1.428371
v -0.113764 -0.063202 -1.188203
v 0.252809 -0.227528 -1.087079
v 0.113764 -0.063202 -1.188203
v 0.113764 -0.214888 -1.428371
v -0.252809 -0.442416 -1.339888
v 0.252809 -0.442416 -1.339888
v -0.113764 -0.189607 -1.542135
v 0.113764 -0.189607 -1.542135
v -0.113764 -0.227528 -1.655899
v 0.316011 -0.442416 -1.529495
v 0.113764 -0.227528 -1.655899
v -0.252809 -0.442416 -1.719101
v 0.252809 -0.442416 -1.719101
v -0.316011 -0.442416 -1.529495
v -0.240169 -0.455056 -1.744382
v -0.278090 -0.366573 -1.832866
v 0.278090 -0.366573 -1.832866
v 0.240169 -0.455056 -1.744382
v -0.113764 -0.214888 -1.668540
v -0.113764 -0.101124 -1.731742
v 0.113764 -0.101124 -1.731742
v -0.113764 -0.025281 -1.870787
v -0.252809 -0.290730 -1.921349
v -0.113764 -0.050562 -1.933989
v 0.252809 -0.290730 -1.921349
v 0.113764 -0.050562 -1.933989
v 0.113764 -0.025281 -1.870787
v 0.113764 -0.214888 -1.668540
v 0.164326 0.404494 -2.224720
v 0.000000 0.429775 -2.237360
v 0.113764 0.316011 -2.313203
v 0.000000 0.417135 -2.085675
v 0.113764 0.404494 -2.098315
v 0.214888 0.176966 -2.098315
v 0.113764 0.075843 -2.237360
v 0.113764 0.227528 -1.959270
v 0.000000 0.227528 -1.946630
v 0.189607 0.000000 -1.997191
v 0.113764 0.063202 -1.921349
v 0.000000 0.050562 -1.908708
v 0.000000 -0.025281 -1.984551
v -0.113764 0.063202 -1.921349
v -0.189607 0.000000 -1.997191
v 0.000000 -0.063202 -2.110955
v 0.113764 -0.037921 -2.110955
v -0.113764 -0.037921 -2.110955
v -0.113764 0.075843 -2.237360
v -0.214888 0.176966 -2.098315
v -0.113764 0.227528 -1.959270
v -0.113764 0.404494 -2.098315
v -0.164326 0.404494 -2.224720
v -0.113764 0.316011 -2.313203
v 0.000000 0.328652 -2.338484
v 0.000000 0.063202 -2.250000
vt 0.500000 1.000000
vt 0.500000 0.687500
vt 1.000000 1.000000
vt 0.000000 1.000000
vt 0.500000 0.312500
vt 0.000000 0.687500
vt 1.000000 0.687500
vt 0.125000 0.625000
vt 0.125000 0.375000
vt 0.375000 0.375000
vt 0.375000 0.625000
vt 0.000000 0.312500
vt 0.500000 0.000000
vt 0.000000 0.000000
vt 1.000000 0.312500
vt 0.125000 0.625000
vt 0.125000 0.375000
vt 0.375000 0.375000
vt 1.000000 0.625000
vt 0.500000 0.625000
vt 1.000000 0.375000
vt 0.375000 0.625000
vt 0.125000 0.625000
vt 0.375000 0.375000
vt 0.500000 0.375000
vt 1.000000 0.000000
vt 0.125000 0.375000
vt 0.000000 0.375000
vt 0.000000 0.625000
vt 0.500000 1.000000
vt 0.375000 0.625000
vt 0.125000 0.625000
vt 0.375000 0.375000
vt 0.125000 0.375000
vt 0.000000 1.000000
vt 0.500000 0.000000
vt 0.000000 0.000000
vt 1.000000 1.000000
vt 0.375000 0.625000
vt 1.000000 0.000000
vt 0.343750 0.312500
vt 0.343750 0.000000
vt 0.000000 0.000000
vt 0.125000 0.625000
vt 0.125000 0.375000
vt 0.375000 0.375000
vt 0.000000 0.312500
vt 0.343750 0.687500
vt 1.000000 0.312500
vt 1.000000 0.000000
vt 0.000000 0.312500
vt 0.250000 0.312500
vt 0.000000 0.000000
vt 0.000000 1.000000
vt 0.250000 0.687500
vt 0.000000 0.687500
vt 1.000000 0.687500
vt 0.343750 1.000000
vt 1.000000 1.000000
vt 0.000000 0.687500
vt 0.375000 0.625000
vt 0.000000 1.000000
vt 0.000000 0.000000
vt 0.000000 0.250000
vt -0.500000 0.000000
vt 0.000000 1.000000
vt 0.500000 1.000000
vt 0.000000 0.500000
vt -1.000000 0.250000
vt -1.000000 0.000000
vt -0.500000 0.250000
vt 0.000000 0.750000
vt -0.500000 0.750000
vt -0.500000 0.000000
vt -0.500000 1.000000
vt -0.500000 0.500000
vt -1.000000 0.750000
vt -1.000000 1.000000
vt 0.000000 1.000000
vt 0.000000 0.750000
vt -0.500000 1.000000
vt 0.000000 0.500000
vt -1.000000 0.500000
vt 0.000000 0.750000
vt 0.000000 1.000000
vt 0.000000 0.000000
vt 0.000000 0.250000
vt 0.500000 0.000000
vt 0.000000 0.000000
vt 0.000000 0.250000
vt 0.000000 0.500000
vt -0.500000 0.250000
vt -0.500000 0.000000
vt -0.500000 1.000000
vt -1.000000 1.000000
vt -0.500000 0.750000
vt 0.000000 0.750000
vt 0.000000 1.000000
vt -1.000000 0.000000
vt -1.000000 0.250000
vt 0.000000 0.000000
vt 0.000000 0.250000
vt 0.000000 0.500000
vt -0.500000 0.500000
vt -1.000000 0.500000
vt -1.000000 0.750000
vn -0.8426 0.3684 -0.3929
vn -0.8489 0.4332 -0.3027
vn -0.8361 0.3008 -0.4588
vn -0.8398 0.4933 -0.2266
vn 0.0000 0.8498 -0.5271
vn 0.0000 0.9648 -0.2631
vn 0.0000 0.6644 -0.7474
vn -0.8711 0.3262 -0.3670
vn -0.7996 0.5794 -0.1580
vn 0.0000 0.5241 0.8517
vn 0.8482 0.3859 -0.3628
vn 0.8513 0.4461 -0.2762
vn 0.8359 0.5175 -0.1828
vn 0.8113 0.5022 -0.2994
vn 0.0000 -0.5433 -0.8396
vn 0.0000 0.9762 0.2169
vn 0.0000 0.9987 -0.0515
vn 0.0000 0.3624 0.9320
vn -0.8249 0.5518 0.1226
vn -0.8045 0.5936 -0.0205
vn -0.7669 0.6013 0.2243
vn 0.0000 0.9487 -0.3162
vn 0.7971 0.6038 -0.0007
vn 0.7812 0.6234 -0.0320
vn 0.7734 0.6087 0.1772
vn 0.7716 0.5967 -0.2202
vn 0.0000 0.2822 -0.9594
vn 0.7747 0.5772 -0.2582
vn -0.7807 0.6248 0.0052
vn -0.7694 0.5917 -0.2408
vn -0.7976 0.5722 -0.1907
vn 0.7762 0.5750 0.2587
vn 0.8445 0.3313 -0.4209
vn 0.8502 0.2505 -0.4631
vn -0.8640 0.3768 0.3340
vn -0.8324 0.3523 0.4278
vn -0.7823 0.2592 0.5665
vn 0.0000 -0.3011 0.9536
vn -0.8227 0.2761 0.4969
vn 0.0000 0.7098 0.7044
vn 0.0000 0.8779 0.4789
vn 0.0000 0.4856 0.8742
vn -0.8732 0.4658 0.1434
vn -0.8881 0.4580 0.0378
vn -0.8534 0.4839 -0.1936
vn 0.8891 0.4475 0.0957
vn 0.8534 0.4839 -0.1936
vn 0.8812 0.4716 0.0321
vn 0.0000 0.9285 -0.3714
vn 0.8467 0.3333 0.4147
vn 0.8501 0.3926 0.3508
vn 0.7957 0.2806 0.5367
vn 0.7869 0.2338 0.5711
vn 0.1574 0.6519 -0.7418
vn 0.1907 0.6694 -0.7180
vn -0.0000 0.6825 -0.7309
vn 0.1338 0.9887 0.0683
vn 0.0000 0.9965 0.0830
vn 0.0000 0.9977 0.0683
vn 0.9101 -0.1248 -0.3952
vn 0.8804 -0.1178 -0.4594
vn 0.8699 -0.2562 -0.4214
vn 0.1154 0.9922 0.0462
vn 0.8501 0.3489 0.3945
vn 0.8913 0.2801 0.3565
vn 0.4837 0.3960 0.7805
vn 0.8518 -0.2373 -0.4670
vn 0.8186 0.3132 0.4814
vn 0.1345 0.5936 0.7934
vn -0.0024 0.4164 0.9092
vn 0.4817 0.1921 0.8550
vn 0.7957 0.1682 0.5819
vn 0.1473 -0.8656 0.4786
vn 0.1446 -0.6915 0.7078
vn -0.0000 -0.8652 0.5014
vn -0.0000 -0.7071 0.7071
vn -0.0038 0.2142 0.9768
vn -0.1446 -0.6915 0.7078
vn -0.1473 -0.8656 0.4786
vn -0.1697 -0.9538 0.2481
vn 0.1697 -0.9538 0.2481
vn 0.0000 -0.9578 0.2873
vn -0.1630 -0.7334 -0.6600
vn -0.1530 -0.5287 -0.8349
vn -0.0000 -0.7420 -0.6704
vn -0.8699 -0.2562 -0.4214
vn -0.8422 -0.3734 -0.3890
vn -0.8518 -0.2373 -0.4670
vn -0.8265 -0.3636 -0.4298
vn -0.8320 0.2861 0.4753
vn -0.7957 0.1682 0.5819
vn -0.4755 0.3867 0.7902
vn -0.8435 0.3749 0.3847
vn -0.8583 0.3815 0.3433
vn -0.8804 -0.1178 -0.4594
vn -0.9101 -0.1248 -0.3952
vn -0.1574 0.6519 -0.7418
vn -0.1907 0.6694 -0.7180
vn -0.1338 0.9887 0.0683
vn -0.1154 0.9922 0.0462
vn -0.0000 0.7071 -0.7071
vn 0.0000 -0.5454 -0.8382
vn -0.1647 -0.3083 -0.9369
vn 0.0000 -0.3162 -0.9487
vn 0.1647 -0.3083 -0.9369
vn 0.1530 -0.5287 -0.8349
vn -0.1345 0.5936 0.7934
vn 0.0000 0.5914 0.8064
vn -0.4776 0.1976 0.8561
vn 0.1630 -0.7334 -0.6600
vn 0.8422 -0.3734 -0.3890
vn 0.8265 -0.3636 -0.4298
usemtl racebikea-cushion01
s 1
f 1/1/1 6/2/2 2/3/3
f 6/2/2 1/1/1 5/4/4
f 7/5/5 6/2/5 9/6/6
f 6/2/5 7/5/5 8/7/7
f 2/3/3 6/2/2 8/7/8
f 9/6/9 6/2/2 5/4/4
f 9/8/10 5/9/10 10/10/10
f 11/11/10 9/8/10 10/10/10
f 11/12/6 7/5/5 9/6/6
f 4/13/11 7/5/12 11/12/13
f 10/14/14 4/13/11 11/12/13
f 8/7/7 7/5/5 12/15/7
f 2/16/15 8/17/15 12/18/15
f 12/19/16 16/20/17 8/21/16
f 12/22/18 8/23/18 14/24/18
f 8/21/19 15/25/20 13/26/21
f 8/23/18 13/27/18 14/24/18
f 16/20/17 15/25/17 8/21/16
f 15/25/17 16/20/17 17/28/22
f 17/28/22 16/20/17 19/29/22
f 18/30/23 16/20/24 12/19/25
f 16/20/24 18/30/23 19/29/26
f 21/31/27 20/32/27 19/33/27
f 20/32/27 17/34/27 19/33/27
f 19/29/26 18/30/23 21/35/28
f 22/36/29 15/25/20 20/37/30
f 15/25/20 22/36/29 13/26/21
f 20/37/30 15/25/20 17/28/31
f 14/38/32 18/30/23 12/19/25
f 3/39/15 2/16/15 12/18/15
f 12/15/33 4/13/11 3/40/34
f 7/5/12 4/13/11 12/15/33
f 28/41/35 24/42/36 23/43/37
f 27/44/38 23/45/38 26/46/38
f 27/47/39 28/41/35 23/43/37
f 28/41/40 29/48/40 30/49/41
f 29/48/40 28/41/40 27/47/42
f 31/50/43 28/41/35 30/49/44
f 24/42/36 28/41/35 31/50/43
f 30/51/44 32/52/45 31/53/43
f 33/54/46 34/55/47 35/56/48
f 34/55/49 32/52/49 30/51/49
f 35/56/49 34/55/49 30/51/49
f 35/57/48 25/58/50 33/59/46
f 29/48/51 25/58/50 35/57/48
f 30/49/41 29/48/40 35/57/41
f 25/58/50 29/48/51 36/60/52
f 36/60/42 29/48/40 27/47/42
f 36/61/38 27/44/38 26/46/38
f 26/62/53 25/58/50 36/60/52
f 37/63/54 39/64/55 38/65/56
f 37/66/57 38/67/58 40/68/59
f 39/69/60 37/70/61 43/71/62
f 41/72/63 37/66/57 40/68/59
f 37/66/64 41/72/65 44/73/66
f 37/70/61 42/74/67 43/71/62
f 42/75/68 37/66/64 44/73/66
f 44/73/66 41/72/69 45/76/70
f 45/76/70 47/77/71 44/73/66
f 44/73/66 46/78/72 42/75/68
f 47/77/71 46/78/72 44/73/66
f 46/79/73 47/80/74 49/81/75
f 47/80/74 48/82/76 49/81/75
f 48/83/77 47/77/71 45/76/70
f 49/81/75 48/82/76 50/84/78
f 51/85/79 49/81/75 50/84/78
f 51/86/79 54/87/80 49/88/75
f 46/89/73 49/88/75 53/90/81
f 49/88/75 52/91/82 53/90/81
f 49/88/75 54/87/80 52/91/82
f 54/87/83 55/92/84 52/91/85
f 55/92/86 54/87/87 56/93/88
f 56/93/88 54/87/87 51/86/89
f 56/94/90 51/95/91 57/96/92
f 58/97/93 56/94/90 57/96/92
f 59/98/94 56/94/90 58/97/93
f 59/99/95 55/92/86 56/93/88
f 60/100/96 55/92/86 59/99/95
f 59/101/97 38/65/56 60/102/98
f 40/68/59 38/67/58 59/98/99
f 58/97/100 40/68/59 59/98/99
f 38/65/56 61/103/101 60/102/98
f 62/104/102 60/100/103 61/105/104
f 55/92/84 60/100/103 62/104/102
f 62/104/102 61/105/104 39/69/105
f 43/71/106 62/104/102 39/69/105
f 52/91/85 62/104/102 43/71/106
f 52/91/85 55/92/84 62/104/102
f 39/64/55 61/103/101 38/65/56
f 57/96/92 45/76/70 58/97/107
f 45/76/70 40/68/108 58/97/107
f 48/83/77 45/76/70 57/96/92
f 50/106/109 48/83/77 57/96/92
f 57/96/92 51/95/91 50/106/109
f 53/90/110 52/91/85 43/71/106
f 43/71/62 42/74/67 53/90/111
f 42/74/67 46/89/112 53/90/111
f 41/72/69 40/68/108 45/76/70
