# Blender v2.83.20 OBJ File: 'jak 2 race zoomers.blend'
# www.blender.org
mtllib racebikeb-met.mtl
o racebikeb-met_race-bike-b-lod0.177
v -0.189607 -0.151685 -2.325843
v -0.189607 -0.151685 -2.376405
v -0.176966 -0.202247 -2.300562
v -0.139045 -0.139045 -2.325843
v -0.139045 -0.139045 -2.376405
v -0.113764 -0.189607 -2.300562
v -0.126405 -0.202247 -2.603933
v -0.139045 -0.139045 -2.667135
v -0.126405 -0.164326 -2.692416
v -0.176966 -0.214888 -2.603933
v -0.189607 -0.176966 -2.692416
v -0.189607 -0.151685 -2.667135
v 0.151685 0.164326 -2.262641
v 0.000000 -0.101124 -2.212079
v 0.000000 0.202247 -2.275281
v 0.265449 0.050562 -2.250000
v 0.164326 -0.101124 -3.071630
v 0.139045 -0.012640 -3.071630
v 0.088483 0.050562 -3.071630
v 0.113764 -0.037921 -3.071630
v 0.139045 -0.101124 -3.071630
v 0.113764 -0.164326 -3.071630
v 0.139045 -0.101124 -2.768259
v 0.113764 -0.164326 -2.768259
v 0.063202 -0.214888 -2.768259
v 0.000000 -0.101124 -2.768259
v 0.000000 -0.227528 -2.768259
v -0.063202 -0.214888 -2.768259
v -0.063202 0.012640 -2.768259
v 0.000000 0.037921 -2.768259
v 0.063202 0.012640 -2.768259
v 0.113764 -0.037921 -2.768259
v -0.113764 -0.164326 -2.768259
v -0.139045 -0.101124 -2.768259
v -0.113764 -0.037921 -2.768259
v -0.139045 -0.101124 -3.071630
v -0.113764 -0.037921 -3.071630
v -0.164326 -0.101124 -3.071630
v -0.139045 -0.012640 -3.071630
v -0.063202 0.012640 -3.071630
v -0.088483 0.050562 -3.071630
v 0.000000 0.037921 -3.071630
v 0.063202 0.012640 -3.071630
v 0.000000 0.063202 -3.071630
v -0.151685 0.164326 -2.262641
v -0.265449 0.050562 -2.250000
v -0.303371 -0.101124 -2.212079
v -0.265449 -0.252809 -2.186798
v -0.139045 -0.176966 -3.071630
v 0.000000 -0.404494 -2.161517
v -0.151685 -0.366573 -2.174158
v 0.151685 -0.366573 -2.174158
v 0.265449 -0.252809 -2.186798
v 0.303371 -0.101124 -2.212079
v 0.139045 -0.176966 -3.071630
v 0.088483 -0.240169 -3.071630
v 0.063202 -0.214888 -3.071630
v 0.000000 -0.227528 -3.071630
v 0.000000 -0.265449 -3.071630
v -0.088483 -0.240169 -3.071630
v -0.063202 -0.214888 -3.071630
v -0.113764 -0.164326 -3.071630
v -0.050562 -0.455056 -1.365169
v 0.050562 -0.455056 -1.365169
v -0.050562 -0.556180 -1.365169
v 0.050562 -0.556180 -1.365169
v -0.050562 -0.455056 -1.807585
v 0.050562 -0.455056 -1.807585
v -0.050562 -0.556180 -1.807585
v 0.050562 -0.556180 -1.807585
v 0.025281 0.556180 1.554776
v 0.088483 0.669944 1.933989
v 0.025281 0.669944 1.554776
v 0.088483 0.568820 1.908708
v 0.000000 0.556180 1.554776
v 0.000000 0.669944 1.554776
v -0.025281 0.669944 1.554776
v 0.000000 0.669944 1.933989
v -0.088483 0.669944 1.933989
v -0.025281 0.556180 1.554776
v -0.088483 0.568820 1.908708
v 0.000000 0.568820 1.908708
v 0.037921 -0.025281 1.542135
v 0.075843 -0.025281 1.655899
v 0.037921 0.568820 1.757023
v 0.000000 0.568820 1.757023
v 0.000000 -0.025281 1.542135
v -0.037921 0.568820 1.757023
v -0.037921 -0.025281 1.542135
v -0.075843 -0.025281 1.655899
v -0.075843 0.568820 1.870787
v -0.025281 -0.025281 1.655899
v -0.025281 0.568820 1.870787
v 0.075843 0.568820 1.870787
v 0.025281 0.568820 1.870787
v 0.025281 -0.025281 1.655899
v -0.037921 -0.139045 1.238764
v -0.037921 -0.037921 1.238764
v -0.101124 -0.126404 1.668540
v 0.000000 -0.151685 1.238764
v 0.037921 -0.139045 1.238764
v 0.000000 -0.025281 1.238764
v 0.101124 -0.126404 1.668540
v 0.000000 -0.139045 1.668540
v 0.101124 -0.025281 1.681180
v 0.000000 -0.012640 1.681180
v 0.037921 -0.037921 1.238764
v -0.101124 -0.025281 1.681180
v 0.050562 -0.467697 1.074438
v 0.050562 -0.442416 1.491573
v 0.050562 -0.543539 1.441012
v 0.050562 -0.556180 1.023877
v 0.000000 -0.455056 1.074438
v 0.000000 -0.429775 1.491573
v -0.050562 -0.467697 1.074438
v -0.050562 -0.442416 1.491573
v 0.000000 -0.543539 1.441012
v -0.050562 -0.543539 1.441012
v -0.050562 -0.556180 1.023877
v 0.000000 -0.568820 1.023877
vt -0.500000 1.000000
vt -0.187500 1.000000
vt -0.687500 0.125000
vt 0.125000 1.000000
vt 0.406250 1.000000
vt 0.125000 0.000000
vt 1.062500 1.000000
vt 1.062500 0.000000
vt 0.406250 0.000000
vt -0.156250 0.062500
vt 1.718750 0.000000
vt 1.718750 1.000000
vt -0.187500 1.000000
vt -0.500000 1.000000
vt -0.687500 0.125000
vt 1.125000 0.000000
vt 1.562500 1.000000
vt 0.562500 1.000000
vt 0.125000 0.000000
vt 0.687500 0.562500
vt -0.718750 0.062500
vt -0.156250 0.937500
vt 0.687500 0.562500
vt 0.125000 0.000000
vt 0.562500 1.000000
vt -0.718750 0.937500
vt 1.562500 1.000000
vt 1.125000 0.000000
vt -0.468750 0.937500
vt -0.468750 0.062500
vt -0.875000 0.937500
vt 1.125000 1.000000
vt -0.875000 0.062500
vt 1.125000 0.000000
vt 0.500000 0.500000
vt 0.937500 0.750000
vt 0.750000 0.937500
vt 0.500000 1.000000
vt -0.843750 1.000000
vt -0.843750 0.000000
vt -0.406250 1.000000
vt -0.250000 0.000000
vt 0.156250 0.000000
vt 0.156250 1.000000
vt -0.250000 1.000000
vt -0.656250 0.000000
vt -0.656250 1.000000
vt -0.656250 0.000000
vt -0.250000 1.000000
vt -0.250000 0.000000
vt 0.156250 1.000000
vt 0.687500 0.406250
vt 0.500000 0.500000
vt 0.718750 0.500000
vt -1.093750 0.000000
vt 0.593750 0.312500
vt 0.687500 0.593750
vt 0.500000 0.281250
vt 0.406250 0.312500
vt 0.312500 0.406250
vt 0.406250 0.687500
vt 0.312500 0.593750
vt 0.500000 0.718750
vt 0.593750 0.687500
vt 0.281250 0.500000
vt -1.156250 0.000000
vt -0.750000 0.000000
vt -0.750000 1.000000
vt -0.593750 0.000000
vt -0.156250 0.000000
vt -0.156250 1.000000
vt -1.156250 1.000000
vt -1.156250 0.000000
vt -0.750000 0.000000
vt -0.750000 1.000000
vt -1.156250 1.000000
vt -0.593750 0.000000
vt -0.156250 0.000000
vt -0.156250 1.000000
vt -0.593750 1.000000
vt -0.593750 1.000000
vt -1.000000 0.000000
vt -1.000000 0.000000
vt -1.000000 1.000000
vt 0.000000 0.000000
vt 0.000000 1.000000
vt -0.406250 1.000000
vt -0.406250 0.000000
vt 0.000000 0.000000
vt 0.000000 1.000000
vt -1.000000 1.000000
vt 0.062500 0.250000
vt 0.250000 0.062500
vt 0.500000 0.000000
vt -1.093750 1.000000
vt -1.093750 0.000000
vt -0.656250 1.000000
vt -0.500000 0.000000
vt -0.093750 0.000000
vt -0.093750 1.000000
vt -0.500000 1.000000
vt -0.906250 1.000000
vt -0.906250 0.000000
vt -0.343750 0.000000
vt 0.093750 0.000000
vt 0.093750 1.000000
vt -0.343750 1.000000
vt -0.343750 0.000000
vt 0.093750 1.000000
vt -0.906250 1.000000
vt -0.906250 0.000000
vt -0.500000 1.000000
vt 0.093750 0.000000
vt -0.343750 1.000000
vt -0.500000 0.000000
vt -0.093750 1.000000
vt -1.093750 1.000000
vt -0.093750 0.000000
vt 1.000000 0.500000
vt 0.937500 0.250000
vt 0.750000 0.062500
vt 0.000000 0.500000
vt 0.062500 0.750000
vt 0.250000 0.937500
vt -0.406250 0.000000
vt -0.843750 1.000000
vt 0.156250 0.000000
vt -0.843750 0.000000
vt 1.000000 1.000000
vt 0.000000 1.000000
vt 1.000000 0.000000
vt 0.000000 1.000000
vt 0.000000 0.000000
vt 1.000000 0.000000
vt 0.000000 0.000000
vt 1.000000 1.000000
vt 1.000000 0.000000
vt 1.000000 1.000000
vt 0.000000 1.000000
vt 0.000000 0.000000
vt 1.000000 0.000000
vt 0.000000 0.000000
vt 1.000000 1.000000
vt 1.000000 0.000000
vt 0.000000 1.000000
vt 1.000000 0.000000
vt 0.000000 1.000000
vt 0.000000 0.000000
vt 1.000000 0.000000
vt 1.000000 1.000000
vt 0.000000 1.000000
vt 0.000000 0.000000
vt 0.500000 1.000000
vt 0.000000 1.000000
vt 0.000000 0.000000
vt 1.000000 0.000000
vt 1.000000 1.000000
vt 0.000000 1.000000
vt 0.500000 0.000000
vt 0.000000 0.000000
vt 1.000000 0.000000
vt 0.000000 1.000000
vt 1.000000 1.000000
vt 1.000000 0.000000
vt 0.000000 1.000000
vt 0.000000 1.000000
vt 1.000000 1.000000
vt 1.000000 0.000000
vt 0.000000 0.000000
vt 0.000000 1.000000
vt 1.000000 1.000000
vt 0.000000 0.000000
vt 1.000000 0.000000
vt 1.000000 1.000000
vt 0.000000 0.000000
vt 1.000000 1.000000
vt -1.000000 1.000000
vt 1.000000 0.000000
vt -1.000000 1.000000
vt -1.000000 0.375000
vt 1.000000 0.375000
vt 1.000000 1.000000
vt -1.000000 0.375000
vt 1.000000 0.375000
vt 1.000000 1.000000
vt 1.000000 0.000000
vt -1.000000 1.000000
vt -1.000000 0.000000
vt 1.000000 1.000000
vt 1.000000 0.375000
vt -1.000000 1.000000
vt -1.000000 0.375000
vt -1.000000 0.000000
vt -1.000000 1.000000
vt -1.000000 0.375000
vt 1.000000 0.375000
vt 1.000000 1.000000
vt 1.000000 0.000000
vt -1.000000 0.000000
vt 1.000000 1.000000
vt 0.000000 1.000000
vt 0.000000 0.000000
vt 1.000000 1.000000
vt 1.000000 0.000000
vt -1.000000 1.000000
vt 1.000000 1.000000
vt -1.000000 1.000000
vt 1.000000 0.000000
vt 0.000000 1.000000
vt -1.000000 0.000000
vt 1.000000 0.000000
vt 1.000000 1.000000
vt 0.000000 1.000000
vt 0.000000 0.000000
vt 1.000000 1.000000
vt 1.000000 1.000000
vt -1.000000 1.000000
vt 1.000000 0.000000
vt -1.000000 0.000000
vt -1.000000 1.000000
vt 1.000000 1.000000
vt 0.000000 1.000000
vt -1.000000 1.000000
vt 1.000000 1.000000
vt 1.000000 0.000000
vt -1.000000 0.000000
vt -1.000000 1.000000
vt 1.000000 1.000000
vt -1.000000 1.000000
vt -1.000000 0.000000
vt 1.000000 1.000000
vt -1.000000 1.000000
vt 1.000000 0.000000
vt 1.000000 0.000000
vt 1.000000 0.000000
vt 0.000000 1.000000
vt -1.000000 0.000000
vt -1.000000 1.000000
vt 0.000000 0.000000
vt 1.000000 0.000000
vt 0.000000 1.000000
vt 1.000000 1.000000
vt 0.000000 1.000000
vt 1.000000 1.000000
vt 1.000000 0.000000
vt -1.000000 0.000000
vt -1.000000 1.000000
vt -1.000000 0.000000
vt -1.000000 1.000000
vt 1.000000 1.000000
vt 1.000000 0.000000
vt 1.000000 1.000000
vt 1.000000 1.000000
vt -1.000000 1.000000
vt 0.000000 0.000000
vt 0.000000 1.000000
vt 1.000000 1.000000
vn -0.9701 -0.2425 0.0000
vn -0.9735 -0.2287 0.0069
vn -0.9720 -0.2351 0.0053
vn -0.2425 0.9701 0.0000
vn -0.0857 0.4284 0.8995
vn -0.0928 0.4171 0.9041
vn -0.0931 0.4167 0.9043
vn -0.1010 0.4041 0.9091
vn 0.2356 -0.9552 -0.1794
vn 0.1960 -0.9801 0.0327
vn 0.2010 -0.9790 0.0335
vn 0.9247 0.3786 -0.0386
vn 0.8944 0.4472 0.0000
vn 0.9117 0.4098 -0.0307
vn 0.9723 0.2332 0.0159
vn 0.9545 0.2834 0.0925
vn 0.9345 0.3271 0.1402
vn 0.1933 -0.8954 -0.4012
vn 0.2302 -0.9556 -0.1839
vn -0.9901 -0.0990 0.0990
vn -0.9825 -0.1856 0.0148
vn -0.9891 -0.1319 0.0659
vn 0.1790 -0.8948 -0.4090
vn -0.2228 0.8912 -0.3951
vn -0.2087 0.8871 -0.4118
vn -0.1577 0.6847 -0.7116
vn -0.1333 0.6667 -0.7333
vn 0.0000 0.1776 0.9841
vn 0.0253 0.2005 0.9794
vn 0.0093 0.1820 0.9833
vn 0.0000 0.2040 0.9790
vn 0.0000 0.0000 -1.0000
vn -0.8348 0.5505 0.0000
vn -1.0000 0.0000 0.0000
vn -0.8348 -0.5505 0.0000
vn -0.4719 0.8817 0.0000
vn 0.8348 -0.5505 0.0000
vn 1.0000 -0.0000 0.0000
vn 0.5505 -0.8348 0.0000
vn 0.0000 -1.0000 0.0000
vn -0.5505 -0.8348 0.0000
vn 0.0101 0.1471 0.9891
vn -0.0107 0.1474 0.9890
vn 0.0000 0.1644 0.9864
vn 0.8348 0.5505 0.0000
vn 0.4719 0.8817 0.0000
vn -0.0000 1.0000 0.0000
vn 0.0000 0.2037 0.9790
vn -0.0101 0.1471 0.9891
vn 0.0107 0.1474 0.9890
vn -0.0253 0.2005 0.9794
vn -0.0093 0.1820 0.9833
vn 0.0000 0.0000 1.0000
vn 0.9860 0.0073 -0.1665
vn 0.9864 0.0000 -0.1644
vn 0.9841 0.0347 -0.1744
vn 0.9832 0.0443 -0.1772
vn 0.0000 -0.9994 0.0357
vn 0.0000 -0.2425 0.9701
vn -0.9841 0.0347 -0.1744
vn -0.9864 0.0000 -0.1644
vn -0.9860 0.0073 -0.1665
vn -0.9832 0.0443 -0.1772
vn 0.9425 0.1136 -0.3142
vn 0.0000 0.3401 -0.9404
vn -0.9425 0.1136 -0.3142
vn 0.0000 -0.3401 0.9404
vn -0.9894 0.0000 -0.1455
vn -0.9897 0.0154 -0.1424
vn -0.9894 0.0025 -0.1450
vn -0.3162 -0.9485 -0.0186
vn 0.0000 -0.9999 -0.0120
vn -0.1362 -0.9903 0.0262
vn 0.3162 -0.9485 -0.0186
vn 0.1362 -0.9903 0.0262
vn 0.0000 -0.9996 0.0294
vn -0.0055 -0.1056 0.9944
vn 0.0155 -0.1240 0.9922
vn -0.0005 -0.1100 0.9939
vn 0.1239 0.9912 -0.0460
vn 0.2909 0.9563 -0.0297
vn 0.0000 0.9990 -0.0454
vn 0.0000 0.9996 -0.0286
vn -0.2909 0.9563 -0.0297
vn -0.1239 0.9912 -0.0460
vn -0.9897 0.0177 -0.1419
vn 0.9894 0.0000 -0.1455
vn 0.9894 0.0025 -0.1450
vn 0.9897 0.0154 -0.1424
vn 0.9897 0.0177 -0.1419
vn 0.2421 0.9685 -0.0587
vn 0.0000 0.9982 -0.0605
vn -0.0237 0.4376 -0.8989
vn 0.1231 0.4924 -0.8616
vn -0.0484 0.4272 -0.9028
vn -0.2421 0.9685 -0.0587
vn -0.0108 -0.4209 0.9071
vn -0.0136 -0.4212 0.9068
vn -0.0774 -0.4146 0.9067
vn 0.1111 -0.4444 0.8889
vn 0.0275 -0.4162 0.9089
vn 0.0000 -0.9995 0.0327
vn 0.0000 -0.9982 0.0605
vn -0.0192 -0.9981 0.0582
vn -0.2424 -0.9697 0.0294
vn 0.2424 -0.9697 0.0294
vn 0.0192 -0.9981 0.0582
vn 0.0000 -0.4472 0.8944
usemtl racebikeb-met
s 1
f 1/1/1 2/2/2 3/3/3
f 2/4/4 1/5/4 5/6/4
f 3/7/5 6/8/6 1/5/7
f 1/5/4 4/9/4 5/6/4
f 6/8/6 4/9/8 1/5/7
f 7/10/9 6/11/10 3/12/11
f 5/13/12 4/14/13 6/15/14
f 7/16/15 5/13/12 6/15/14
f 7/16/15 8/17/16 5/13/12
f 8/18/16 7/19/15 9/20/17
f 9/21/18 7/10/9 10/22/19
f 10/22/19 7/10/9 3/12/11
f 11/23/20 10/24/21 12/25/22
f 11/26/23 9/21/18 10/22/19
f 2/2/2 12/27/22 10/28/21
f 3/3/3 2/2/2 10/28/21
f 12/29/24 8/30/25 11/31/26
f 12/29/24 2/32/4 8/30/25
f 8/30/25 9/33/27 11/31/26
f 2/32/4 5/34/4 8/30/25
f 14/35/28 16/36/29 13/37/30
f 15/38/31 14/35/28 13/37/30
f 18/39/32 20/40/32 19/41/32
f 21/42/32 20/43/32 18/44/32
f 17/45/32 21/42/32 18/44/32
f 22/46/32 21/42/32 17/45/32
f 22/47/33 24/48/33 21/49/34
f 21/49/34 23/50/34 20/51/35
f 24/48/33 23/50/34 21/49/34
f 24/52/32 26/53/32 23/54/32
f 25/55/36 24/48/33 22/47/33
f 25/56/32 26/53/32 24/52/32
f 26/53/32 32/57/32 23/54/32
f 26/53/32 25/56/32 27/58/32
f 28/59/32 26/53/32 27/58/32
f 33/60/32 26/53/32 28/59/32
f 29/61/32 26/53/32 35/62/32
f 26/53/32 29/61/32 30/63/32
f 31/64/32 26/53/32 30/63/32
f 32/57/32 26/53/32 31/64/32
f 26/53/32 33/60/32 34/65/32
f 35/62/32 26/53/32 34/65/32
f 35/66/37 34/67/38 36/68/38
f 29/69/39 35/70/37 37/71/37
f 37/72/37 35/66/37 36/68/38
f 37/73/32 36/74/32 38/75/32
f 39/76/32 37/73/32 38/75/32
f 40/77/32 37/78/32 39/79/32
f 40/80/39 29/69/39 37/71/37
f 41/81/32 40/77/32 39/79/32
f 42/82/32 40/77/32 41/81/32
f 30/83/40 29/69/39 40/80/39
f 42/84/40 30/83/40 40/80/39
f 30/85/40 42/86/40 43/87/41
f 43/88/32 42/89/32 44/90/32
f 44/91/32 42/82/32 41/81/32
f 19/41/32 43/88/32 44/90/32
f 14/35/28 48/92/42 51/93/43
f 50/94/44 14/35/28 51/93/43
f 56/95/32 57/96/32 55/97/32
f 58/98/32 57/99/32 56/100/32
f 59/101/32 58/98/32 56/100/32
f 60/102/32 61/103/32 59/101/32
f 61/103/32 58/98/32 59/101/32
f 62/104/32 61/105/32 60/106/32
f 62/107/45 33/108/45 61/109/46
f 61/110/46 28/111/46 58/112/47
f 33/108/45 28/113/46 61/109/46
f 49/114/32 62/104/32 60/106/32
f 36/74/32 62/104/32 49/114/32
f 36/68/38 34/67/38 62/107/45
f 34/67/38 33/108/45 62/107/45
f 58/112/47 27/115/47 57/116/36
f 28/111/46 27/115/47 58/112/47
f 57/96/32 22/46/32 55/97/32
f 57/117/36 25/55/36 22/47/33
f 27/115/47 25/118/36 57/116/36
f 55/97/32 22/46/32 17/45/32
f 54/119/48 14/35/28 53/120/49
f 16/36/29 14/35/28 54/119/48
f 14/35/28 52/121/50 53/120/49
f 52/121/50 14/35/28 50/94/44
f 38/75/32 36/74/32 49/114/32
f 48/92/42 14/35/28 47/122/48
f 47/122/48 14/35/28 46/123/51
f 14/35/28 45/124/52 46/123/51
f 45/124/52 14/35/28 15/38/31
f 31/125/41 30/85/40 43/87/41
f 31/125/41 43/87/41 20/126/35
f 20/40/32 43/88/32 19/41/32
f 23/50/34 32/127/35 20/51/35
f 32/128/35 31/125/41 20/126/35
f 64/129/53 63/130/53 66/131/53
f 67/132/47 63/133/47 64/134/47
f 63/130/53 65/135/53 66/131/53
f 63/136/34 67/132/34 65/137/34
f 68/138/47 67/132/47 64/134/47
f 69/139/32 67/140/32 68/141/32
f 67/132/34 69/142/34 65/137/34
f 70/143/32 69/139/32 68/141/32
f 65/135/40 69/144/40 70/143/40
f 68/138/38 64/145/38 70/146/38
f 66/147/40 65/135/40 70/143/40
f 64/145/38 66/148/38 70/146/38
f 71/149/54 73/150/55 72/151/56
f 74/152/57 71/149/54 72/151/56
f 76/153/32 73/154/32 71/155/32
f 75/156/58 71/157/58 74/158/58
f 75/159/32 76/153/32 71/155/32
f 76/160/47 78/161/47 73/154/47
f 77/162/47 79/163/47 76/160/47
f 77/162/32 76/153/32 75/159/32
f 79/163/47 78/161/47 76/160/47
f 79/163/59 81/164/59 78/165/59
f 79/166/60 77/167/61 80/168/62
f 81/169/63 79/166/60 80/168/62
f 81/170/58 80/171/58 82/172/58
f 81/164/59 82/172/59 78/165/59
f 82/172/59 74/173/59 72/174/59
f 82/172/58 75/156/58 74/158/58
f 78/165/59 82/172/59 72/174/59
f 80/171/58 75/156/58 82/172/58
f 80/175/32 77/162/32 75/159/32
f 78/161/47 72/174/47 73/154/47
f 83/176/64 85/177/64 84/178/64
f 86/179/65 85/180/65 83/181/65
f 87/182/65 86/179/65 83/181/65
f 88/183/65 86/179/65 87/182/65
f 89/184/65 88/183/65 87/182/65
f 89/185/66 90/186/66 88/187/66
f 90/186/66 91/188/66 88/187/66
f 90/189/67 92/190/67 91/191/67
f 92/190/67 93/192/67 91/191/67
f 85/177/64 94/193/64 84/178/64
f 94/194/67 95/195/67 96/196/67
f 84/197/67 94/194/67 96/196/67
f 97/198/68 99/199/69 98/200/70
f 97/201/32 98/200/32 100/202/32
f 97/203/71 100/204/72 99/205/73
f 101/206/74 103/207/75 100/204/72
f 100/202/32 102/208/32 101/209/32
f 98/200/32 102/208/32 100/202/32
f 103/207/75 104/210/76 100/204/72
f 100/204/72 104/210/76 99/205/73
f 104/211/77 103/212/78 105/213/79
f 106/214/77 104/211/77 105/213/79
f 99/215/79 104/211/77 106/214/77
f 105/216/80 107/217/81 106/218/82
f 107/217/81 102/219/83 106/218/82
f 106/218/82 102/219/83 98/220/84
f 108/221/85 106/218/82 98/220/84
f 108/222/78 99/215/79 106/214/77
f 99/199/69 108/223/86 98/200/70
f 102/208/32 107/224/32 101/209/32
f 101/225/87 107/224/88 103/226/89
f 107/224/88 105/227/90 103/226/89
f 109/228/38 110/229/38 111/230/38
f 110/231/91 109/232/91 114/233/92
f 112/234/38 109/228/38 111/230/38
f 113/235/93 109/228/94 112/236/95
f 109/232/91 113/237/92 114/233/92
f 114/233/92 113/237/92 115/238/96
f 114/239/97 117/240/98 110/241/99
f 116/242/96 114/233/92 115/238/96
f 116/243/100 118/244/101 114/239/97
f 118/244/101 117/240/98 114/239/97
f 120/245/102 117/246/103 118/247/104
f 118/248/34 116/249/34 115/250/34
f 119/251/34 118/248/34 115/250/34
f 119/252/105 120/245/102 118/247/104
f 112/253/106 111/254/107 120/245/102
f 120/255/93 113/235/93 112/236/95
f 115/250/95 113/235/93 120/255/93
f 119/256/94 115/250/95 120/255/93
f 111/254/107 117/246/103 120/245/102
f 117/240/98 111/257/108 110/241/99
