# Blender v2.83.20 OBJ File: 'jak 2 race zoomers.blend'
# www.blender.org
mtllib racebikeb-corg.mtl
o racebikeb-corg_race-bike-b-lod0.171
v -0.126405 0.088483 0.985955
v -0.126405 -0.025281 0.960674
v -0.176966 -0.012640 0.973315
v -0.176966 0.075843 0.985955
v -0.126405 0.126405 1.011236
v -0.126405 0.126405 1.061798
v -0.126405 0.088483 1.087079
v -0.164326 0.113764 1.049158
v -0.176966 0.075843 1.074438
v -0.126405 -0.025281 1.099719
v -0.126405 -0.063202 0.985955
v -0.126405 -0.063202 1.074438
v -0.176966 -0.012640 1.087079
v -0.164326 -0.050562 1.074438
v -0.164326 -0.050562 0.985955
v -0.164326 0.113764 1.011236
v 0.126405 -0.025281 0.960674
v 0.176966 -0.012640 0.973315
v 0.126405 0.088483 0.985955
v 0.126405 -0.063202 0.985955
v 0.126405 -0.025281 1.099719
v 0.126405 -0.063202 1.074438
v 0.164326 -0.050562 1.074438
v 0.164326 -0.050562 0.985955
v 0.176966 -0.012640 1.087079
v 0.176966 0.075843 1.074438
v 0.126405 0.088483 1.087079
v 0.126405 0.126405 1.061798
v 0.126405 0.126405 1.011236
v 0.164326 0.113764 1.011236
v 0.164326 0.113764 1.049158
v 0.176966 0.075843 0.985955
v 0.050562 0.050562 1.175562
v -0.050562 0.050562 1.175562
v -0.050562 -0.126405 1.150281
v -0.075843 -0.025281 1.175562
v 0.075843 -0.025281 1.175562
v 0.050562 -0.126405 1.150281
v -0.278090 -0.328652 -1.188203
v -0.252809 -0.429775 -1.289326
v 0.252809 -0.429775 -1.289326
v 0.278090 -0.328652 -1.188203
v -0.252809 -0.227528 -1.087079
v 0.252809 -0.227528 -1.087079
v -0.252809 -0.442416 -1.339888
v 0.252809 -0.442416 -1.339888
v 0.316011 -0.442416 -1.529495
v -0.252809 -0.442416 -1.719101
v 0.252809 -0.442416 -1.719101
v -0.316011 -0.442416 -1.529495
v 0.316011 0.543539 -0.985955
v 0.366573 0.556180 -0.998596
v -0.366573 0.556180 -0.935393
v -0.316011 0.543539 -0.985955
v -0.316011 0.543539 -0.935393
v -0.252809 0.265449 -0.922753
v -0.202247 0.278090 -0.922753
v -0.189607 0.278090 -0.973315
v -0.252809 0.265449 -0.973315
v -0.366573 0.556180 -0.998596
v 0.366573 0.556180 -0.935393
v 0.252809 0.265449 -0.973315
v 0.252809 0.265449 -0.922753
v 0.202247 0.278090 -0.922753
v 0.189607 0.278090 -0.973315
v 0.316011 0.543539 -0.935393
v -0.240169 -0.455056 -1.744382
v -0.278090 -0.366573 -1.832866
v 0.278090 -0.366573 -1.832866
v 0.240169 -0.455056 -1.744382
v -0.252809 -0.290730 -1.921349
v -0.113764 -0.050562 -1.933989
v 0.252809 -0.290730 -1.921349
v 0.113764 -0.050562 -1.933989
v -0.050562 -0.202247 -0.050562
v -0.113764 -0.316011 -0.025281
v 0.050562 -0.113764 -0.290730
v 0.050562 -0.202247 -0.050562
v -0.050562 -0.113764 -0.290730
v 0.113764 -0.316011 -0.025281
v 0.050562 -0.328652 -0.278090
v 0.050562 -0.379214 -0.126405
v 0.113764 -0.214888 -0.278090
v -0.113764 -0.214888 -0.278090
v -0.050562 -0.328652 -0.278090
v -0.050562 -0.379214 -0.126405
vt 0.500000 1.750000
vt 0.000000 1.750000
vt 0.000000 2.000000
vt 1.000000 0.187500
vt 0.843750 0.812500
vt 0.156250 0.812500
vt 0.500000 2.000000
vt 0.500000 1.750000
vt 0.375000 1.750000
vt 0.375000 2.000000
vt 0.687500 1.000000
vt 0.312500 1.000000
vt 0.750000 1.750000
vt 0.625000 1.750000
vt 0.625000 2.000000
vt 0.750000 2.000000
vt -0.250000 1.750000
vt -0.250000 2.000000
vt 0.250000 1.750000
vt 0.000000 0.187500
vt 0.843750 0.000000
vt 0.156250 0.000000
vt 0.250000 2.000000
vt 0.375000 1.750000
vt 0.093750 0.250000
vt 0.906250 0.250000
vt 0.218750 0.062500
vt 0.781250 0.750000
vt 0.375000 2.000000
vt 0.218750 0.750000
vt 0.781250 0.062500
vt 0.875000 2.000000
vt 0.875000 1.750000
vt 1.000000 2.000000
vt 1.000000 1.750000
vt 0.343750 0.937500
vt 0.656250 0.937500
vt 0.500000 2.000000
vt 0.000000 2.000000
vt 0.000000 1.750000
vt 0.500000 1.750000
vt 0.875000 1.750000
vt 1.000000 1.750000
vt 1.000000 2.000000
vt 1.000000 0.187500
vt 0.000000 0.187500
vt 0.843750 0.812500
vt 0.843750 0.000000
vt 0.156250 0.000000
vt 0.375000 1.750000
vt 0.875000 2.000000
vt 0.375000 2.000000
vt 0.250000 1.750000
vt 0.093750 0.250000
vt 0.218750 0.062500
vt 0.781250 0.062500
vt 0.906250 0.250000
vt 0.250000 2.000000
vt 0.218750 0.750000
vt -0.250000 2.000000
vt -0.250000 1.750000
vt 0.750000 1.750000
vt 0.750000 2.000000
vt 0.625000 1.750000
vt 0.156250 0.812500
vt 0.312500 1.000000
vt 0.687500 1.000000
vt 0.500000 1.750000
vt 0.500000 2.000000
vt 0.375000 1.750000
vt 0.625000 2.000000
vt 0.343750 0.937500
vt 0.781250 0.750000
vt 0.656250 0.937500
vt 0.375000 2.000000
vt 0.500000 2.000000
vt 0.312500 0.000000
vt 0.687500 0.000000
vt 0.218750 0.562500
vt 0.781250 0.562500
vt 0.312500 1.000000
vt 0.687500 1.000000
vt -0.375000 0.500000
vt -0.250000 1.218750
vt 1.250000 1.218750
vt 1.375000 0.500000
vt -0.250000 -0.218750
vt 1.250000 -0.218750
vt 1.406250 0.500000
vt -0.406250 0.500000
vt 1.218750 1.000000
vt -0.218750 1.000000
vt -0.218750 0.000000
vt 1.218750 0.000000
vt -1.000000 0.250000
vt -1.000000 0.000000
vt 0.000000 0.000000
vt -1.000000 1.000000
vt -1.000000 0.750000
vt 0.000000 0.750000
vt 0.000000 1.000000
vt -0.750000 1.000000
vt -1.000000 1.000000
vt -1.000000 0.750000
vt 0.000000 0.250000
vt -0.750000 0.750000
vt 0.000000 0.500000
vt -1.000000 0.500000
vt -1.000000 0.750000
vt 0.000000 0.750000
vt -1.000000 0.500000
vt 0.000000 0.500000
vt -1.000000 0.250000
vt -0.750000 0.750000
vt -1.000000 0.750000
vt -0.750000 1.000000
vt -1.000000 1.000000
vt 0.000000 1.000000
vt 0.000000 0.250000
vt -1.000000 0.000000
vt 0.000000 0.000000
vt -1.000000 1.000000
vt -0.343750 0.218750
vt 1.343750 0.218750
vt -0.218750 -0.062500
vt 1.218750 -0.062500
vt 0.156250 1.062500
vt 0.843750 1.062500
vt -0.250000 0.531250
vt 1.250000 0.531250
vt -0.500000 0.750000
vt -0.500000 1.125000
vt -1.000000 1.125000
vt 0.343750 0.656250
vt 0.187500 0.250000
vt 0.812500 0.250000
vt -1.000000 1.500000
vt -0.500000 1.500000
vt 0.656250 0.656250
vt -0.500000 0.875000
vt -0.500000 1.250000
vt -1.000000 1.250000
vt -1.000000 0.875000
vt 0.656250 0.000000
vt -0.500000 1.875000
vt -1.000000 1.875000
vt 0.187500 0.625000
vt 0.812500 0.625000
vt 0.343750 0.218750
vt 0.343750 1.000000
vt 0.656250 1.000000
vt 0.656250 0.218750
vt -1.000000 1.625000
vt -1.000000 0.375000
vt -0.500000 0.375000
vt -1.000000 0.750000
vt -0.500000 1.625000
vt 0.343750 0.000000
vn -0.1190 0.3939 -0.9114
vn -0.2359 -0.1824 -0.9545
vn -0.2223 -0.0294 -0.9745
vn 1.0000 0.0000 0.0000
vn -0.0858 0.3104 -0.9467
vn -0.1630 0.5668 -0.8076
vn -0.3362 0.3625 0.8692
vn -0.4196 0.5035 0.7553
vn -0.3728 0.5555 0.7432
vn -0.2951 0.3262 0.8981
vn -0.3015 -0.2497 0.9202
vn -0.2317 -0.0928 0.9684
vn -0.2515 -0.4639 0.8494
vn -0.9886 -0.1504 0.0000
vn -0.9487 -0.3162 0.0000
vn -0.9930 0.1185 0.0000
vn -0.1162 -0.3487 0.9300
vn -0.3162 -0.9487 0.0000
vn -0.2552 -0.4650 -0.8478
vn -0.1818 -0.5455 -0.8182
vn -0.9487 0.3162 0.0000
vn -0.1961 0.5883 -0.7845
vn -0.3162 0.9487 0.0000
vn 0.1492 0.1957 -0.9692
vn 0.1865 0.2131 -0.9591
vn 0.1341 0.4040 -0.9049
vn 0.2515 -0.4639 -0.8494
vn 0.3276 -0.5241 -0.7861
vn 0.2440 -0.4577 -0.8550
vn -1.0000 0.0000 0.0000
vn 0.3162 -0.9487 0.0000
vn 0.2449 -0.2250 0.9431
vn 0.1818 -0.5455 0.8182
vn 0.2552 -0.4650 0.8478
vn 0.9886 -0.1504 0.0000
vn 0.9487 -0.3162 0.0000
vn 0.1163 -0.3487 -0.9300
vn 0.2714 -0.0807 0.9591
vn 0.9930 0.1185 0.0000
vn 0.3236 0.3203 0.8903
vn 0.3008 0.3520 0.8863
vn 0.3724 0.5578 0.7417
vn 0.1818 0.5455 -0.8182
vn 0.1629 0.5647 -0.8090
vn 0.3162 0.9487 0.0000
vn 0.9487 0.3162 0.0000
vn 0.4256 0.5959 0.6810
vn 0.0792 0.3168 -0.9452
vn 0.0000 -0.2425 0.9701
vn 0.0000 -0.1261 0.9920
vn 0.0000 0.0000 1.0000
vn 0.0000 -0.7071 0.7071
vn 0.0000 -1.0000 0.0000
vn 0.9166 0.3989 0.0254
vn 0.9191 0.3939 0.0000
vn 0.8834 0.4254 0.1966
vn 0.0102 0.0477 0.9988
vn 0.0120 0.0481 0.9988
vn -0.0087 0.0434 0.9990
vn -0.0107 0.0430 0.9990
vn 0.2193 -0.9752 0.0303
vn 0.2421 -0.9684 0.0605
vn 0.2158 -0.9761 0.0257
vn 0.8768 0.4280 0.2192
vn 0.1961 -0.9806 0.0000
vn 0.0161 -0.0804 -0.9966
vn 0.2124 0.0464 -0.9761
vn 0.0395 -0.0655 -0.9971
vn 0.2601 0.0780 -0.9624
vn -0.9312 -0.3644 0.0000
vn 0.9312 -0.3644 0.0000
vn -0.2453 0.0117 -0.9694
vn -0.0295 -0.0387 -0.9988
vn -0.2227 0.0063 -0.9749
vn -0.1961 -0.9806 0.0000
vn -0.2158 -0.9761 0.0257
vn -0.2193 -0.9752 0.0303
vn -0.2421 -0.9684 0.0605
vn 0.0078 0.0408 0.9991
vn 0.0099 0.0396 0.9992
vn -0.0094 0.0510 0.9987
vn -0.9029 0.4299 0.0000
vn -0.8956 0.3982 0.1983
vn -0.9039 0.4270 0.0244
vn -0.0087 -0.0434 -0.9990
vn -0.8921 0.3930 0.2230
vn -0.0133 0.0533 0.9985
vn 0.0000 -0.7345 -0.6786
vn 0.0000 -0.7071 -0.7071
vn 0.0000 -0.0526 -0.9986
vn 0.0000 -0.7593 -0.6508
vn -0.8330 0.5175 0.1959
vn -0.8404 0.5085 0.1874
vn -0.8235 0.5284 0.2066
vn 0.0000 0.2169 0.9762
vn 0.0000 0.9383 0.3457
vn 0.8409 -0.5086 -0.1848
vn 0.8241 -0.5374 -0.1791
vn 0.8504 -0.4914 -0.1880
vn 0.8581 -0.4767 -0.1907
vn 0.0000 -0.8480 0.5300
vn 0.8359 0.5097 0.2039
vn 0.8241 0.5302 0.1994
vn 0.8322 0.5162 0.2025
vn 0.0000 -0.0607 -0.9982
vn 0.0000 0.0000 -1.0000
vn 0.0000 -0.1240 -0.9923
vn 0.8199 0.5372 0.1979
vn 0.0000 -0.9487 -0.3162
vn -0.8629 -0.4794 -0.1598
vn -0.8432 -0.5019 -0.1924
vn -0.8520 -0.4923 -0.1783
vn -0.8359 -0.5097 -0.2039
vn -0.8159 0.5368 0.2147
usemtl racebikeb-corg
s 1
f 1/1/1 2/2/2 3/3/3
f 2/4/4 1/5/4 7/6/4
f 4/7/5 1/1/1 3/3/3
f 5/8/6 1/9/1 4/10/5
f 1/5/4 5/11/4 6/12/4
f 7/6/4 1/5/4 6/12/4
f 7/13/7 6/14/8 8/15/9
f 9/16/10 7/13/7 8/15/9
f 7/17/7 9/18/10 10/19/11
f 10/20/4 2/4/4 7/6/4
f 11/21/4 2/4/4 10/20/4
f 12/22/4 11/21/4 10/20/4
f 10/19/11 13/23/12 12/24/13
f 9/18/10 13/23/12 10/19/11
f 13/25/14 3/26/14 14/27/15
f 4/28/16 3/26/14 13/25/14
f 13/23/12 14/29/17 12/24/13
f 9/30/16 4/28/16 13/25/14
f 3/26/14 15/31/15 14/27/15
f 14/29/18 15/32/18 11/33/18
f 12/24/18 14/29/18 11/33/18
f 15/32/19 3/34/3 2/35/2
f 11/33/20 15/32/19 2/35/2
f 8/36/21 16/37/21 9/30/16
f 16/37/21 4/28/16 9/30/16
f 16/38/22 5/8/6 4/10/5
f 6/14/23 5/8/23 16/38/23
f 8/15/23 6/14/23 16/38/23
f 18/39/24 17/40/25 19/41/26
f 20/42/27 17/43/28 18/44/29
f 17/45/30 21/46/30 19/47/30
f 20/48/30 22/49/30 17/45/30
f 22/49/30 21/46/30 17/45/30
f 22/50/31 20/42/31 24/51/31
f 23/52/31 22/50/31 24/51/31
f 21/53/32 22/50/33 23/52/34
f 25/54/35 23/55/36 24/56/36
f 18/57/35 25/54/35 24/56/36
f 24/51/37 20/42/27 18/44/29
f 25/58/38 21/53/32 23/52/34
f 26/59/39 25/54/35 18/57/35
f 26/60/40 27/61/41 25/58/38
f 27/61/41 21/53/32 25/58/38
f 27/62/41 26/63/40 28/64/42
f 21/46/30 27/65/30 19/47/30
f 27/65/30 28/66/30 29/67/30
f 19/47/30 27/65/30 29/67/30
f 29/68/43 30/69/44 19/70/26
f 31/71/45 30/69/45 29/68/45
f 28/64/45 31/71/45 29/68/45
f 31/72/46 26/59/39 32/73/39
f 30/74/46 31/72/46 32/73/39
f 26/63/40 31/71/47 28/64/42
f 30/69/44 32/75/48 19/70/26
f 32/76/48 18/39/24 19/41/26
f 32/73/39 26/59/39 18/57/35
f 35/77/49 38/78/49 36/79/50
f 38/78/49 37/80/50 36/79/50
f 36/79/50 37/80/50 34/81/51
f 37/80/50 33/82/51 34/81/51
f 39/83/52 40/84/52 41/85/52
f 42/86/52 39/83/52 41/85/52
f 43/87/52 39/83/52 42/86/52
f 44/88/52 43/87/52 42/86/52
f 47/89/53 50/90/53 49/91/53
f 50/90/53 48/92/53 49/91/53
f 45/93/53 50/90/53 47/89/53
f 46/94/53 45/93/53 47/89/53
f 54/95/54 55/96/55 57/97/56
f 55/98/57 53/99/58 56/100/59
f 57/101/60 55/98/57 56/100/59
f 58/102/61 57/103/62 56/104/63
f 58/105/64 54/95/54 57/97/56
f 59/106/65 58/102/61 56/104/63
f 59/107/66 60/108/67 58/105/68
f 60/108/67 54/95/69 58/105/68
f 53/99/70 60/108/70 59/107/70
f 56/100/70 53/99/70 59/107/70
f 61/109/71 63/110/71 52/111/71
f 52/111/72 62/112/73 51/113/74
f 63/110/71 62/112/71 52/111/71
f 62/114/75 63/115/76 65/116/77
f 63/115/76 64/117/78 65/116/77
f 64/118/79 63/110/80 61/109/81
f 51/113/82 65/119/83 66/120/84
f 62/112/73 65/119/85 51/113/74
f 65/119/83 64/121/86 66/120/84
f 66/122/87 64/118/79 61/109/81
f 68/123/88 69/124/88 67/125/89
f 69/124/88 70/126/89 67/125/89
f 72/127/90 74/128/90 71/129/90
f 71/129/91 73/130/91 68/123/88
f 74/128/90 73/130/90 71/129/90
f 73/130/91 69/124/88 68/123/88
f 76/131/92 75/132/93 79/133/94
f 75/134/95 76/135/95 80/136/95
f 77/137/96 79/133/96 75/132/96
f 78/138/96 77/137/96 75/132/96
f 78/139/95 75/134/95 80/136/95
f 80/140/97 82/141/98 81/142/99
f 83/143/100 80/140/97 81/142/99
f 80/136/101 76/135/101 82/144/101
f 80/145/102 83/146/103 78/138/104
f 84/147/105 83/148/105 85/149/106
f 79/150/107 83/148/105 84/147/105
f 77/151/107 83/148/105 79/150/107
f 83/148/105 81/152/106 85/149/106
f 83/146/103 77/137/108 78/138/104
f 81/142/109 82/141/109 85/153/109
f 85/154/110 86/155/111 84/156/112
f 82/141/109 86/157/109 85/153/109
f 76/135/101 86/158/101 82/144/101
f 86/155/111 76/131/113 84/156/112
f 84/156/114 76/131/92 79/133/94
